{"title":"The Sting-720p MP4 AAC x264 BRRip 1973-CC","uid":7753489,"size":3118702394,"categoryP":"video","categoryS":"hd___movies","magnet":"?xt=urn:btih:2561153150b7965509b9e886552b1931a9b650a2&amp;dn=The+Sting-720p+MP4+AAC+x264+BRRip+1973-CC&amp;tr=udp%3A%2F%2Ftracker.openbittorrent.com%3A80&amp;tr=udp%3A%2F%2Fopen.demonii.com%3A1337&amp;tr=udp%3A%2F%2Ftracker.coppersurfer.tk%3A6969&amp;tr=udp%3A%2F%2Fexodus.desync.com%3A6969","seeders":2,"leechers":1,"uploader":"Caveman44","files":24,"time":1351024488,"description":" &lt;a href=&quot;http://www.imdb.com/title/tt0070735/&quot; rel=&quot;nofollow&quot; target=&quot;_NEW&quot;&gt;http://www.imdb.com/title/tt0070735/&lt;/a&gt;\n\nSource: The.Sting.1973.720p.BluRay.DD5.1.x264-EbP Thanks!\n\nSubs: Arabic, Czech, Dutch, English SDH, English, Polish and Spanish.\n\nSample and Screens included.\n\nGeneral\nComplete name                            : The Sting-720p MP4 AAC x264 BRRip 1973-CC.mp4\nFormat                                   : MPEG-4\nFormat profile                           : Base Media\nCodec ID                                 : isom\nFile size                                : 2.87 GiB\nDuration                                 : 2h 9mn\nOverall bit rate mode                    : Variable\nOverall bit rate                         : 3 179 Kbps\nEncoded date                             : UTC 2012-10-10 14:54:20\n\nVideo\nID                                       : 1\nFormat                                   : AVC\nFormat/Info                              : Advanced Video Codec\nFormat profile                           : &lt;a class=&quot;__cf_email__&quot; href=&quot;/cdn-cgi/l/email-protection&quot; data-cfemail=&quot;ca82a3ada28a86fee4fb&quot;&gt;[email&amp;#160;protected]&lt;/a&gt;&lt;script cf-hash='f9e31' type=&quot;text/javascript&quot;&gt;\n/* &lt;![CDATA[ */!function(){try{var t=&quot;currentScript&quot;in document?document.currentScript:function(){for(var t=document.getElementsByTagName(&quot;script&quot;),e=t.length;e--;)if(t[e].getAttribute(&quot;cf-hash&quot;))return t[e]}();if(t&amp;&amp;t.previousSibling){var e,r,n,i,c=t.previousSibling,a=c.getAttribute(&quot;data-cfemail&quot;);if(a){for(e=&quot;&quot;,r=parseInt(a.substr(0,2),16),n=2;a.length-n;n+=2)i=parseInt(a.substr(n,2),16)^r,e+=String.fromCharCode(i);e=document.createTextNode(e),c.parentNode.replaceChild(e,c)}}}catch(u){}}();/* ]]&gt; */&lt;/script&gt;\nFormat settings, CABAC                   : Yes\nFormat settings, ReFrames                : 5 frames\nCodec ID                                 : avc1\nCodec ID/Info                            : Advanced Video Coding\nDuration                                 : 2h 9mn\nBit rate                                 : 2 791 Kbps\nMaximum bit rate                         : 17.3 Mbps\nWidth                                    : 1 280 pixels\nHeight                                   : 688 pixels\nDisplay aspect ratio                     : 1.85:1\nOriginal display aspect ratio            : 1.85:1\nFrame rate mode                          : Variable\nFrame rate                               : 23.976 fps\nMinimum frame rate                       : 15.873 fps\nMaximum frame rate                       : 24.390 fps\nColor space                              : YUV\nChroma subsampling                       : 4:2:0\nBit depth                                : 8 bits\nScan type                                : Progressive\nBits/(Pixel*Frame)                       : 0.132\nStream size                              : 2.52 GiB (88%)\nWriting library                          : x264 core 112\n\nAudio\nID                                       : 2\nFormat                                   : AAC\nFormat/Info                              : Advanced Audio Codec\nFormat profile                           : LC\nCodec ID                                 : 40\nDuration                                 : 2h 9mn\nBit rate mode                            : Variable\nBit rate                                 : 384 Kbps\nMaximum bit rate                         : 657 Kbps\nChannel(s)                               : 6 channels\nChannel positions                        : Front: L C R, Side: L R, LFE\nSampling rate                            : 48.0 KHz\nCompression mode                         : Lossy\nDelay relative to video                  : 83ms\nStream size                              : 354 MiB (12%)\nLanguage                                 : English\n\nEnjoy...\n\nRequested by mrmuvis.\n\nComing soon: Sixteen Candles, Cat Run, Sunset Blvd, The Horse Whisperer and more..","torrent":{"xt":"urn:btih:2561153150b7965509b9e886552b1931a9b650a2","amp;dn":"The+Sting-720p+MP4+AAC+x264+BRRip+1973-CC","amp;tr":["udp%3A%2F%2Ftracker.openbittorrent.com%3A80","udp%3A%2F%2Fopen.demonii.com%3A1337","udp%3A%2F%2Ftracker.coppersurfer.tk%3A6969","udp%3A%2F%2Fexodus.desync.com%3A6969"],"infoHash":"2561153150b7965509b9e886552b1931a9b650a2","infoHashBuffer":{"type":"Buffer","data":[37,97,21,49,80,183,150,85,9,185,232,134,85,43,25,49,169,182,80,162]},"announce":[],"urlList":[]}}